PathFileType	4	(X/Y/Z)	/Users/itak/Documents/Research/Walk-IL/dataset/trc/00578_00009.trc
DataRate	CameraRate	NumFrames	NumMarkers	Units	OrigDataRate	OrigDataStartFrame	OrigNumFrames
100.000000	100.000000	4	53	mm	100.000000	129	517
Frame#	Time	RPSI			LPSI			L3			STRN			T10			C7			CLAV			RBAK			LBAK			LSHO			LUPA			LAEL			LAOL			LWTS			LWPS			LFRA			LIFD			LHPS			LHTS			RSHO			RUPA			RAEL			RAOL			RWTS			RWPS			RFRA			RIFD			RHTS			RHPS			RBHD			LFHD			RFHD			LBHD			LHIP			RHIP			RASI			LASI			LKNE			LTHI			LANK			LTIP			LTOE			LMT1			LMT5			LHEE			RKNE			RTHI			RANK			RTIP			RTOE			RMT1			RMT5			RHEE			
		X1	Y1	Z1	X2	Y2	Z2	X3	Y3	Z3	X4	Y4	Z4	X5	Y5	Z5	X6	Y6	Z6	X7	Y7	Z7	X8	Y8	Z8	X9	Y9	Z9	X10	Y10	Z10	X11	Y11	Z11	X12	Y12	Z12	X13	Y13	Z13	X14	Y14	Z14	X15	Y15	Z15	X16	Y16	Z16	X17	Y17	Z17	X18	Y18	Z18	X19	Y19	Z19	X20	Y20	Z20	X21	Y21	Z21	X22	Y22	Z22	X23	Y23	Z23	X24	Y24	Z24	X25	Y25	Z25	X26	Y26	Z26	X27	Y27	Z27	X28	Y28	Z28	X29	Y29	Z29	X30	Y30	Z30	X31	Y31	Z31	X32	Y32	Z32	X33	Y33	Z33	X34	Y34	Z34	X35	Y35	Z35	X36	Y36	Z36	X37	Y37	Z37	X38	Y38	Z38	X39	Y39	Z39	X40	Y40	Z40	X41	Y41	Z41	X42	Y42	Z42	X43	Y43	Z43	X44	Y44	Z44	X45	Y45	Z45	X46	Y46	Z46	X47	Y47	Z47	X48	Y48	Z48	X49	Y49	Z49	X50	Y50	Z50	X51	Y51	Z51	X52	Y52	Z52	X53	Y53	Z53	

130	1.29	-1095.537231445312	988.8672485351562	-55.54315185546875	-1018.560180664062	988.911376953125	-165.4356994628906	-1047.642211914062	1092.639892578125	-100.5825500488281	-829.113037109375	1255.0986328125	32.5692138671875	-1044.452270507812	1217.3291015625	-94.05036163330078	-985.9824829101562	1484.75341796875	-39.35694885253906	-836.0821533203125	1367.39306640625	28.64683532714844	-1099.358154296875	1366.396118164062	-8.03825569152832	-975.6033935546875	1437.177612304688	-138.3200988769531	-849.6932983398438	1452.277954101562	-165.1620025634766	-838.9369506835938	1328.548828125	-248.3513946533203	-841.1646118164062	1107.71435546875	-276.5821838378906	-942.0140380859375	1114.205810546875	-271.0333862304688	-822.3076171875	852.7695922851562	-210.3921356201172	-829.519775390625	837.5661010742188	-295.860595703125	-830.5999755859375	1018.860656738281	-278.9699401855469	-881.6624755859375	708.3917236328125	-222.6748199462891	-838.9163818359375	777.2290649414062	-289.6290893554688	-814.5225830078125	772.3916015625	-226.2962799072266	-1014.268249511719	1438.145751953125	121.5687026977539	-1067.583984375	1373.738647460938	167.3946533203125	-1108.517700195312	1085.063232421875	194.3761901855469	-1146.675048828125	1073.10791015625	145.0991973876953	-987.0284423828125	854.382080078125	210.2579193115234	-1059.842407226562	837.3161010742188	247.2327575683594	-1106.87841796875	1029.12109375	203.1720428466797	-994.5773315429688	681.8341064453125	204.4580383300781	-976.1021118164062	760.3207397460938	232.0699310302734	-1049.419677734375	761.8656616210938	250.1207580566406	-942.3050537109375	1654.268920898438	58.53253936767578	-738.7699584960938	1670.782592773438	19.18520736694336	-826.2658081054688	1670.288208007812	136.3655700683594	-837.128173828125	1653.353271484375	-69.64104461669922	-830.005859375	922.1832275390625	-191.5880126953125	-1074.962890625	908.7412109375	112.6328506469727	-967.120361328125	937.4740600585938	122.2064437866211	-807.3129272460938	944.1137084960938	-101.8638687133789	-677.48193359375	535.0996704101562	-16.34086418151855	-724.1347045898438	682.2080688476562	-93.64202117919922	-658.659912109375	49.72538757324219	2.240783452987671	-681.0586547851562	275.5054016113281	-25.6651439666748	-517.668212890625	121.1444396972656	147.2609100341797	-594.7453002929688	99.95169067382812	144.1460723876953	-551.5059814453125	82.48057556152344	49.23600387573242	-743.0353393554688	33.17041778564453	14.96081829071045	-1073.607543945312	471.54931640625	30.49826431274414	-1049.596069335938	752.0733032226562	115.1275482177734	-1211.355224609375	36.03402709960938	-108.2159118652344	-1089.139770507812	331.1419372558594	-8.332715034484863	-1001.6318359375	37.03545379638672	-24.60211753845215	-1033.255737304688	38.97893142700195	-93.55651092529297	-1110.479248046875	36.74311447143555	-19.93179321289062	-1226.719604492188	29.3125114440918	-184.3499298095703	
131	1.3	-1089.449951171875	987.7628173828125	-52.89424514770508	-1012.214599609375	987.7157592773438	-162.5467224121094	-1041.34521484375	1091.3525390625	-97.81768035888672	-823.3104248046875	1253.8408203125	35.95108413696289	-1038.302856445312	1216.064208984375	-91.35067749023438	-979.9639282226562	1483.488525390625	-36.49274444580078	-830.252197265625	1366.155639648438	31.92703056335449	-1093.424560546875	1365.183349609375	-5.355747699737549	-969.3533325195312	1435.847534179688	-135.4283447265625	-843.44482421875	1450.8994140625	-161.9976196289062	-832.4390258789062	1327.134765625	-245.0917053222656	-834.3956909179688	1106.331665039062	-273.3311767578125	-935.2880859375	1112.759521484375	-267.9753112792969	-815.5050659179688	851.3516235351562	-207.2256011962891	-822.4905395507812	836.20947265625	-292.7222900390625	-823.7380981445312	1017.499938964844	-275.7505798339844	-875.0370483398438	707.31201171875	-219.8973236083984	-831.7988891601562	775.8892822265625	-286.5745849609375	-807.5064086914062	771.0475463867188	-223.1739501953125	-1008.596069335938	1436.982788085938	124.3720321655273	-1061.989379882812	1372.599731445312	170.1287078857422	-1102.768310546875	1083.89453125	197.2005767822266	-1140.841430664062	1071.884033203125	147.8768463134766	-981.0780029296875	853.3555297851562	213.4455413818359	-1053.939453125	836.2393798828125	250.3258819580078	-1101.110473632812	1027.960571289062	206.0565185546875	-988.4532470703125	680.8017578125	207.7610168457031	-970.0791625976562	759.3228759765625	235.3640289306641	-1043.442993164062	760.8049926757812	253.2796325683594	-936.3723754882812	1653.168212890625	61.46755218505859	-732.777099609375	1669.469848632812	22.33414840698242	-820.3623657226562	1669.076782226562	139.4266662597656	-831.008544921875	1652.081787109375	-66.61967468261719	-823.6122436523438	920.7737426757812	-187.940673828125	-1069.780883789062	907.72021484375	115.2861022949219	-961.6882934570312	936.28076171875	125.4399719238281	-801.1954956054688	942.6217041015625	-98.16407775878906	-671.9124145507812	533.5647583007812	-12.89761924743652	-718.0556640625	680.5194702148438	-90.54472351074219	-648.5541381835938	48.60239410400391	8.543008804321289	-673.067138671875	274.2344665527344	-20.8856372833252	-509.1470642089844	122.1938323974609	154.0944366455078	-585.9790649414062	100.4069061279297	150.5835723876953	-541.8670043945312	82.52395629882812	56.05213928222656	-732.8495483398438	31.44947242736816	20.8022575378418	-1070.714233398438	470.8953552246094	32.08634567260742	-1045.1552734375	750.9998168945312	117.4831237792969	-1211.3642578125	36.33771133422852	-107.931037902832	-1087.189331054688	330.7167053222656	-7.228304386138916	-1001.681884765625	36.92998123168945	-24.59347152709961	-1033.393432617188	39.10772705078125	-93.37818908691406	-1110.599731445312	36.61869812011719	-19.70267677307129	-1226.951171875	30.26166343688965	-183.9992065429688	
132	1.31	-1083.130126953125	986.6439819335938	-50.20317840576172	-1005.618347167969	986.5108642578125	-159.6188049316406	-1034.798461914062	1090.0234375	-95.01605987548828	-817.35546875	1252.59375	39.39159393310547	-1031.939697265625	1214.765380859375	-88.61702728271484	-973.8226928710938	1482.20166015625	-33.61529541015625	-824.296875	1364.925415039062	35.25809860229492	-1087.349487304688	1363.93603515625	-2.658765316009521	-962.9636840820312	1434.491577148438	-132.5205841064453	-837.0599365234375	1449.512573242188	-158.8043975830078	-825.779296875	1325.699096679688	-241.7821807861328	-827.395751953125	1104.932373046875	-270.0107421875	-928.3477783203125	1111.261108398438	-264.8165588378906	-808.3838500976562	849.9285278320312	-203.9997253417969	-815.1810913085938	834.8438720703125	-289.5292358398438	-816.6390991210938	1016.114990234375	-272.4488220214844	-867.9619750976562	706.0901489257812	-217.0009002685547	-824.36474609375	774.535888671875	-283.4679565429688	-800.2099609375	769.6561889648438	-219.9897766113281	-1002.811401367188	1435.818481445312	127.1976470947266	-1056.281494140625	1371.458740234375	172.87548828125	-1096.927612304688	1082.731811523438	200.0425415039062	-1134.911499023438	1070.659057617188	150.6774749755859	-975.0116577148438	852.345703125	216.6933288574219	-1047.936279296875	835.175048828125	253.4672241210938	-1095.250854492188	1026.804321289062	208.9712371826172	-982.1753540039062	679.78125	211.1072387695312	-963.9402465820312	758.34326171875	238.7008209228516	-1037.354736328125	759.7584838867188	256.4862670898438	-930.3282470703125	1652.068603515625	64.40262603759766	-726.67041015625	1668.161254882812	25.47425651550293	-814.3447265625	1667.882690429688	142.4866943359375	-824.8026733398438	1650.804565429688	-63.59577178955078	-816.9918823242188	919.341796875	-184.2037506103516	-1064.392211914062	906.6951293945312	117.9661407470703	-956.08447265625	935.0711059570312	128.7261505126953	-794.8505249023438	941.1124877929688	-94.37628936767578	-666.27685546875	531.888427734375	-9.406276702880859	-711.8343505859375	678.7149658203125	-87.41237640380859	-639.2005615234375	47.33943557739258	14.46413040161133	-665.4500732421875	272.83642578125	-16.27558708190918	-501.5983581542969	122.8314361572266	160.8425598144531	-578.1929321289062	100.4986038208008	156.7994689941406	-533.0673217773438	82.29096984863281	62.69343185424805	-723.447021484375	29.6385612487793	26.0543155670166	-1067.636108398438	470.2666015625	33.74773788452148	-1040.540649414062	749.9282836914062	119.8758697509766	-1211.377075195312	36.73464965820312	-107.5948791503906	-1085.12158203125	330.3214721679688	-6.013995170593262	-1001.7529296875	36.82641983032227	-24.5837459564209	-1033.5537109375	39.26316833496094	-93.18311309814453	-1110.7431640625	36.4902229309082	-19.45353507995605	-1227.250244140625	31.40275382995605	-183.5827331542969	
133	1.32	-1076.57470703125	985.5098266601562	-47.46374130249023	-998.7687377929688	985.2951049804688	-156.6494750976562	-1028.010009765625	1088.655151367188	-92.16797637939453	-811.243408203125	1251.360473632812	42.88327026367188	-1025.36572265625	1213.434692382812	-85.84128570556641	-967.5565795898438	1480.898559570312	-30.72901916503906	-818.2116088867188	1363.704345703125	38.63376617431641	-1081.130615234375	1362.65771484375	0.05183142423629761	-956.435791015625	1433.11181640625	-129.5966033935547	-830.535888671875	1448.125	-155.5828857421875	-818.9586181640625	1324.247802734375	-238.4250793457031	-820.1695556640625	1103.520751953125	-266.6236877441406	-921.1893920898438	1109.712036132812	-261.5626220703125	-800.9458618164062	848.5043334960938	-200.7110748291016	-807.5902709960938	833.470458984375	-286.2768859863281	-809.3048095703125	1014.710327148438	-269.0627136230469	-860.4075927734375	704.7034912109375	-213.9548797607422	-816.6282348632812	773.1646118164062	-280.3011169433594	-792.6576538085938	768.210693359375	-216.7328491210938	-996.9080810546875	1434.651611328125	130.0457153320312	-1050.45458984375	1370.315063476562	175.6357421875	-1090.997436523438	1081.574340820312	202.9079132080078	-1128.88671875	1069.432006835938	153.50439453125	-968.830810546875	851.3513793945312	219.9994354248047	-1041.832397460938	834.120849609375	256.653076171875	-1089.298461914062	1025.65283203125	211.9156188964844	-975.743896484375	678.7730712890625	214.4976196289062	-957.68359375	757.3811645507812	242.0677032470703	-1031.15185546875	758.7239379882812	259.7363891601562	-924.176025390625	1650.966674804688	67.34283447265625	-720.4557495117188	1666.866333007812	28.5996150970459	-808.2146606445312	1666.7109375	145.5455322265625	-818.519775390625	1649.529174804688	-60.56816101074219	-810.1565551757812	917.8892822265625	-180.3823852539062	-1058.782104492188	905.6707763671875	120.6886520385742	-950.2923583984375	933.85009765625	132.0614624023438	-788.2755126953125	939.60009765625	-90.50605010986328	-660.6088256835938	530.05859375	-5.866992473602295	-705.478759765625	676.8010864257812	-84.2410888671875	-630.6981811523438	45.91021728515625	19.99471282958984	-658.266845703125	271.2796936035156	-11.82890796661377	-495.0216369628906	122.9369659423828	167.4356994628906	-571.4006958007812	100.1308517456055	162.7611389160156	-525.18896484375	81.70243835449219	69.10840606689453	-714.9474487304688	27.78450012207031	30.73835754394531	-1064.366821289062	469.673583984375	35.50208282470703	-1035.732177734375	748.8698120117188	122.3212966918945	-1211.389526367188	37.24868392944336	-107.1993789672852	-1082.932373046875	329.9610900878906	-4.670989990234375	-1001.839538574219	36.72006607055664	-24.57216453552246	-1033.728637695312	39.44505310058594	-92.97272491455078	-1110.90625	36.35544204711914	-19.18563461303711	-1227.607788085938	32.75642776489258	-183.0999145507812	
